<svg id="Capa_1" enable-background="new 0 0 510.035 510.035" height="512" viewBox="0 0 510.035 510.035" width="512" xmlns="http://www.w3.org/2000/svg"><g id="XMLID_1279_"><path id="XMLID_1280_" d="m69.469 135.178c-49.988 3.652-83.111 55.374-63.971 102.801 32.879-44.239 85.51-73.004 144.54-73.004l.834.002c39.118.183 50.816 11.972 104.163 11.972 20.196 0 40.297-2.133 59.818-6.34 1.618-26.11-8.033-50.885-25.975-68.975-39.146-39.462-103.665-34.254-136.28 9.942-3.701 5.017-9.901 8.419-17.563 8.398-14.633 0-28.816 4.22-41.019 12.203-7.708 5.045-12.512 2.121-24.547 3.001z"/><path id="XMLID_1285_" d="m255.034 299.975c-77.831 0-127.5 26.652-127.5 45s49.669 44.999 127.5 44.999 127.5-26.651 127.5-44.999c0-18.347-49.669-45-127.5-45z"/><path id="XMLID_1291_" d="m325.979 198.862c-46.412 10.782-95.479 10.782-141.891 0-93.916-21.815-183.38 49.553-184.05 145.038-.683 96.991 89.353 168.999 183.785 147.25 46.587-10.734 95.835-10.734 142.422 0 94.853 21.845 184.463-50.668 183.786-147.25-.673-95.514-90.16-166.85-184.052-145.038zm-177.528 202.364c-68.066-28.66-68.085-83.834 0-112.502 94.018-39.588 264.083-14.469 264.083 56.251 0 70.81-170.161 95.798-264.083 56.251z"/><circle id="XMLID_1292_" cx="45.034" cy="59.975" r="45"/><path id="XMLID_1293_" d="m375.034 74.975h30v30h-30z"/><path id="XMLID_1294_" d="m465.034 149.975h30v30h-30z"/></g></svg>