<svg id="Layer_1" enable-background="new 0 0 512 512" height="512" viewBox="0 0 512 512" width="512" xmlns="http://www.w3.org/2000/svg"><g><path d="m221.971 59.112c0-16.068 13.072-29.141 29.14-29.141h79.604l25.692-25.6c2.81-2.799 6.614-4.371 10.578-4.371h-115.874c-32.594 0-59.111 26.518-59.111 59.112v4.888h29.971z"/><path d="m153.319 64h9.128l-33.805-33.805 4.614-4.614c5.853-5.852 5.853-15.34 0-21.192-5.852-5.853-15.34-5.853-21.192 0l-15.21 15.21-45.255 45.255c-.003.003-.006.007-.009.01l-15.2 15.2c-5.853 5.852-5.853 15.34 0 21.192 2.926 2.926 6.761 4.389 10.596 4.389s7.67-1.463 10.596-4.389l4.614-4.614 33.345 33.345v-8.208c0-31.859 25.919-57.779 57.778-57.779z"/><path d="m480 484.192v-420.404c0-18.647-15.171-33.817-33.818-33.817h-73.006l-59.844 59.63c-2.809 2.799-6.613 4.37-10.578 4.37h-149.435c-15.334 0-27.808 12.475-27.808 27.808v362.413c0 15.334 12.474 27.808 27.808 27.808h298.872c15.334 0 27.809-12.475 27.809-27.808zm-64.276-63.918c5.853 5.852 5.853 15.34 0 21.192-2.926 2.926-6.761 4.389-10.596 4.389s-7.67-1.463-10.596-4.389l-46.705-46.705h-90.142l-46.705 46.705c-2.926 2.926-6.761 4.389-10.596 4.389s-7.67-1.463-10.596-4.389c-5.853-5.852-5.853-15.34 0-21.192l46.613-46.613v-141.237l-46.613-46.613c-5.853-5.852-5.853-15.34 0-21.192 5.852-5.852 15.34-5.853 21.192 0l46.613 46.613h90.327l46.613-46.613c5.852-5.853 15.34-5.853 21.192 0 5.853 5.852 5.853 15.34 0 21.192l-46.613 46.613v141.237z"/><path d="m266.371 241.203h72.77v123.588h-72.77z"/></g></svg>