<?xml version="1.0" encoding="iso-8859-1"?>
<!-- Generator: Adobe Illustrator 19.0.0, SVG Export Plug-In . SVG Version: 6.00 Build 0)  -->
<svg version="1.1" id="Capa_1" xmlns="http://www.w3.org/2000/svg" xmlns:xlink="http://www.w3.org/1999/xlink" x="0px" y="0px"
	 viewBox="0 0 511.999 511.999" style="enable-background:new 0 0 511.999 511.999;" xml:space="preserve">
<g>
	<g>
		<path d="M43.63,184.012v13.606c0,60.836,49.493,110.329,110.329,110.329h17.311v60.051h69.729v30.049h-30.025v68.926
			c0,24.827,20.199,45.026,45.026,45.026c24.827,0,45.026-20.199,45.026-45.026v-68.926H271v-30.049h69.729v-60.051h17.311
			c60.836,0,110.329-49.493,110.329-110.329v-13.606H43.63z"/>
	</g>
</g>
<g>
	<g>
		<polygon points="301.026,60.051 301.026,30.001 360.427,30.001 360.427,0 210.973,0 210.973,154.01 301.026,154.01 
			301.026,90.052 360.439,90.052 360.439,112.023 390.441,112.023 390.441,60.051 		"/>
	</g>
</g>
<g>
</g>
<g>
</g>
<g>
</g>
<g>
</g>
<g>
</g>
<g>
</g>
<g>
</g>
<g>
</g>
<g>
</g>
<g>
</g>
<g>
</g>
<g>
</g>
<g>
</g>
<g>
</g>
<g>
</g>
</svg>
