<svg id="Layer_1" enable-background="new 0 0 512.011 512.011" height="512" viewBox="0 0 512.011 512.011" width="512" xmlns="http://www.w3.org/2000/svg"><path d="m492.009 90.636c-8.989-12.186-21.438-18.626-36-18.626-32.391 0-57.8 44.68-72.031 74.67l-60.209-27.79c-41.905-19.324-91.46-20.318-135.52 0l-60.209 27.79c-14.13-29.779-39.665-74.67-72.031-74.67-14.563 0-27.011 6.441-36 18.626-21.048 28.531-20 86.346-20 125.374 0 46.98 19.679 90.734 56.91 126.533 25.681 24.693 51.329 37.57 55.743 39.69 9.293 5.096-30.672-16.523 75.586 40.696 43.499 23.405 94.44 22.114 135.52 0 106.78-57.5 65.981-35.434 75.586-40.696 4.415-2.121 30.063-14.998 55.743-39.69 37.231-35.799 56.91-79.553 56.91-126.533.002-40.999.675-97.351-19.998-125.374zm-460 125.373c0-39.142 0-112 24-112 4.038 0 14.92 6.725 30.098 31.929 8.742 14.517 15.353 29.313 17.902 35.279v168.631c-28.021-19.552-72-60.354-72-123.839zm376 123.839v-168.631c2.549-5.965 9.16-20.762 17.902-35.279 15.178-25.204 26.061-31.929 30.098-31.929 24 0 24 72.858 24 112 0 52.365-29.755 94.413-72 123.839z"/></svg>