<svg id="Capa_1" enable-background="new 0 0 498 498" height="512" viewBox="0 0 498 498" width="512" xmlns="http://www.w3.org/2000/svg"><g><path d="m201 304.75v117h-54v-43.5h-87v-124.75h-32v-121h30.14c-6.12-22.44-26.67-39-51.02-39h-7.12v-30h7.12c40.97 0 75.07 29.89 81.69 69h33.19v121h-32v94.75h57v-43.5z"/><path d="m423 109.5v-32h31v-30h-179v30h31v32h-75v60h267v-60zm-30 0h-57v-32h57z"/><path d="m231 390.5h267v60h-267z"/><path d="m231 199.5v161h267v-161zm176.61 107.39-21.22 21.22-21.89-21.89-21.89 21.89-21.22-21.22 21.89-21.89-21.89-21.89 21.22-21.22 21.89 21.89 21.89-21.89 21.22 21.22-21.89 21.89z"/></g></svg>