<?xml version="1.0" encoding="iso-8859-1"?>
<!-- Generator: Adobe Illustrator 21.0.0, SVG Export Plug-In . SVG Version: 6.00 Build 0)  -->
<svg xmlns="http://www.w3.org/2000/svg" xmlns:xlink="http://www.w3.org/1999/xlink" version="1.1" id="Capa_1" x="0px" y="0px" viewBox="0 0 512 512" style="enable-background:new 0 0 512 512;" xml:space="preserve" width="512" height="512">
<g>
	<g>
		<path d="M227.237,69.357c-1.436-1.312-2.902-2.625-4.419-3.938C193.29,39.853,141.94,9.377,65.001,9.377h0    c-8.284,0-15,6.716-15,15v10.726C125.096,39.21,187.231,55.704,227.237,69.357z"/>
		<path d="M329.314,54.699c42.188-10.898,86.683-17.49,132.675-19.707V24.377c0-8.284-6.716-15-15-15    c-76.939,0-128.288,30.476-157.816,56.042c-0.789,0.683-1.561,1.366-2.328,2.049C299.039,63.248,313.222,58.856,329.314,54.699z"/>
	</g>
	<path d="M497,64.141c-130.548,0-216.272,36.223-241,48.174v0.291c-25.122-11.214-117.854-48.465-241-48.465   c-8.284,0-15,6.716-15,15v358.482c0,8.284,6.716,15,15,15c134.198,0,232.915,47.742,234.348,48.444   c2.102,1.04,4.379,1.556,6.651,1.556c0,0,0,0,0,0H256c0.329,0,0.658-0.012,0.987-0.034c0.106-0.007,0.212-0.021,0.318-0.03   c0.223-0.019,0.446-0.04,0.668-0.069c0.125-0.017,0.25-0.039,0.375-0.059c0.201-0.032,0.402-0.065,0.602-0.105   c0.134-0.027,0.267-0.059,0.4-0.089c0.19-0.043,0.379-0.088,0.567-0.139c0.137-0.037,0.273-0.078,0.409-0.119   c0.183-0.055,0.364-0.113,0.545-0.175c0.137-0.047,0.274-0.097,0.41-0.148c0.177-0.066,0.352-0.137,0.527-0.21   c0.137-0.057,0.273-0.116,0.409-0.178c0.172-0.078,0.341-0.161,0.511-0.247c0.133-0.067,0.266-0.133,0.398-0.204   c0.05-0.027,0.101-0.05,0.151-0.078c0.867-0.481,88.404-48.116,233.723-48.116c8.284,0,15-6.716,15-15V79.141   C512,70.856,505.284,64.141,497,64.141z M59.503,141.832c0-4.214,1.772-8.234,4.884-11.076c3.111-2.842,7.269-4.243,11.472-3.863   c43.558,3.954,85.307,12.069,124.085,24.121c6.273,1.95,10.548,7.755,10.548,14.324v60c0,4.768-2.267,9.251-6.105,12.079   c-2.608,1.921-5.733,2.921-8.895,2.921c-1.492,0-2.992-0.222-4.451-0.676c-36.768-11.427-76.433-19.129-117.894-22.893   c-7.727-0.701-13.644-7.18-13.644-14.938V141.832z M209.817,409.79c-1.998,6.429-7.924,10.552-14.32,10.552   c-1.475,0-2.974-0.219-4.456-0.68c-36.768-11.427-76.433-19.129-117.894-22.893c-8.25-0.749-14.332-8.044-13.583-16.294   c0.749-8.251,8.05-14.335,16.294-13.583c43.558,3.954,85.307,12.069,124.085,24.121   C207.856,393.473,212.276,401.879,209.817,409.79z M209.817,349.79c-1.998,6.429-7.924,10.552-14.32,10.552   c-1.475,0-2.974-0.219-4.456-0.68c-36.768-11.427-76.433-19.129-117.894-22.893c-8.25-0.749-14.332-8.044-13.583-16.294   c0.749-8.251,8.05-14.333,16.294-13.583c43.558,3.954,85.307,12.069,124.085,24.121   C207.856,333.473,212.276,341.879,209.817,349.79z M209.817,289.79c-1.998,6.429-7.924,10.552-14.32,10.552   c-1.475,0-2.974-0.219-4.456-0.68c-36.768-11.427-76.433-19.129-117.894-22.893c-8.25-0.749-14.332-8.044-13.583-16.294   c0.749-8.251,8.05-14.339,16.294-13.583c43.558,3.954,85.307,12.069,124.085,24.121   C207.856,273.473,212.276,281.879,209.817,289.79z M438.353,396.771c-41.46,3.764-81.125,11.466-117.894,22.893   c-1.482,0.46-2.982,0.68-4.457,0.68c-6.396,0-12.321-4.123-14.319-10.552c-2.458-7.911,1.961-16.317,9.873-18.776   c38.78-12.052,80.528-20.167,124.085-24.121c8.244-0.749,15.546,5.332,16.294,13.583   C452.685,388.726,446.604,396.022,438.353,396.771z M438.353,336.771c-41.46,3.764-81.125,11.466-117.894,22.893   c-1.482,0.46-2.982,0.68-4.457,0.68c-6.396,0-12.321-4.123-14.319-10.552c-2.458-7.911,1.961-16.317,9.873-18.776   c38.78-12.052,80.528-20.167,124.085-24.121c8.244-0.753,15.546,5.332,16.294,13.583   C452.685,328.726,446.604,336.022,438.353,336.771z M438.353,276.771c-41.46,3.764-81.125,11.466-117.894,22.893   c-1.482,0.46-2.982,0.68-4.457,0.68c-6.396,0-12.321-4.123-14.319-10.552c-2.458-7.911,1.961-16.317,9.873-18.776   c38.78-12.052,80.528-20.167,124.085-24.121c8.244-0.749,15.546,5.332,16.294,13.583   C452.685,268.726,446.604,276.022,438.353,276.771z M438.353,216.77c-41.46,3.764-81.125,11.466-117.894,22.893   c-1.482,0.46-2.982,0.68-4.457,0.68c-6.396,0-12.321-4.123-14.319-10.552c-2.458-7.911,1.961-16.317,9.873-18.776   c38.78-12.052,80.528-20.167,124.085-24.121c8.244-0.754,15.546,5.331,16.294,13.583   C452.685,208.726,446.604,216.021,438.353,216.77z M438.353,156.77c-41.46,3.764-81.125,11.466-117.894,22.893   c-1.482,0.46-2.982,0.68-4.457,0.68c-6.396,0-12.321-4.123-14.319-10.552c-2.458-7.911,1.961-16.317,9.873-18.776   c38.78-12.052,80.528-20.167,124.085-24.121c8.244-0.75,15.546,5.332,16.294,13.583   C452.685,148.726,446.604,156.021,438.353,156.77z"/>
</g>















</svg>
