<?xml version="1.0" encoding="iso-8859-1"?>
<!-- Generator: Adobe Illustrator 21.0.0, SVG Export Plug-In . SVG Version: 6.00 Build 0)  -->
<svg xmlns="http://www.w3.org/2000/svg" xmlns:xlink="http://www.w3.org/1999/xlink" version="1.1" id="Capa_1" x="0px" y="0px" viewBox="0 0 512 512" style="enable-background:new 0 0 512 512;" xml:space="preserve" width="512" height="512">
<g>
	<path d="M424.197,121.029h-7.354c-12.51-35.405-46.436-60-84.844-60H180c-38.408,0-72.334,24.595-84.844,60h-7.354   C39.375,121.029,0,160.419,0,208.847c0,13.521,3.193,27.1,9.258,39.272l41.47,82.91h93.45l-23.416-70.254   c-2.607-7.866,1.641-16.362,9.492-18.97c7.822-2.622,16.348,1.597,18.984,9.478l26.58,79.746H241v-105c0-8.291,6.709-15,15-15   s15,6.709,15,15v105h65.182l26.58-79.746c2.637-7.852,11.162-12.085,18.984-9.478c7.852,2.607,12.1,11.104,9.492,18.97   l-23.416,70.254h93.45l41.47-82.939c6.064-12.144,9.258-25.723,9.258-39.243C512,160.419,472.625,121.029,424.197,121.029z"/>
	<path d="M465.956,361.029H46.036l-12.814,18.135c-8.965,12.7-10.781,28.901-4.863,43.345c8.378,20.441,26.445,28.462,48.809,28.462   c17.549,0,34.365-5.566,51.064-16.831c24.814-16.772,56.898-9.521,77.611,2.9c14.912,8.965,31.992,13.682,49.16,13.682   c0.293,0,0.586,0,0.85,0c17.021,0.088,35.127-4.57,50.303-13.682c20.742-12.451,52.738-19.731,77.641-2.886   c21.533,14.531,43.301,19.57,66.621,15.396c14.971-2.71,27.393-12.817,33.223-27.041c5.918-14.443,4.102-30.645-4.863-43.33   L465.956,361.029z"/>
</g>















</svg>
