<svg id="Capa_1" enable-background="new 0 0 512 512" height="512" viewBox="0 0 512 512" width="512" xmlns="http://www.w3.org/2000/svg"><g><path d="m333.714 134.185c-11.881 24.534-35.051 42.604-62.714 47.476v59.339h14.212v30h-58.423v-30h14.211v-59.339c-27.663-4.872-50.833-22.942-62.714-47.476-41.416 10.487-72.062 48.002-72.062 92.678v115.178h48.734v-127.784h30v297.743h56.042v-147.651h30v147.651h56.041v-297.743h30v127.785h48.735v-115.179c0-44.676-30.646-82.191-72.062-92.678z"/><path d="m201.8 111.891c6.63 23.707 28.376 41.103 54.2 41.103 25.823 0 47.57-17.395 54.2-41.102l-54.2-19.457z"/><path d="m312.29 80.766v-24.476c0-31.088-25.202-56.29-56.29-56.29s-56.29 25.202-56.29 56.29v24.476l56.29-20.206z"/></g></svg>