<?xml version="1.0" encoding="iso-8859-1"?>
<!-- Generator: Adobe Illustrator 19.0.0, SVG Export Plug-In . SVG Version: 6.00 Build 0)  -->
<svg version="1.1" id="Layer_1" xmlns="http://www.w3.org/2000/svg" xmlns:xlink="http://www.w3.org/1999/xlink" x="0px" y="0px"
	 viewBox="0 0 512 512" style="enable-background:new 0 0 512 512;" xml:space="preserve">
<g>
	<g>
		<path d="M376.5,120.5h-241c-27.93,0-53.911,8.496-75.5,23.037v18.555v20.301v147.215v20.301v18.555
			c21.589,14.541,47.57,23.037,75.5,23.037h24.1c3.979,0,7.794-1.58,10.607-4.394L256,301.313l85.794,85.794
			c2.813,2.813,6.628,4.394,10.606,4.394h24.1c27.93,0,53.911-8.496,75.5-23.037v-18.554v-20.303V182.393v-20.302v-18.554
			C430.411,128.995,404.43,120.5,376.5,120.5z"/>
	</g>
</g>
<g>
	<g>
		<path d="M29.463,171.742c-1.727-6.378-7.539-11.076-14.463-11.076c-8.284,0-15,6.716-15,15V256v80.332c0,8.284,6.716,15,15,15
			c6.924,0,12.735-4.697,14.463-11.074c0.178,0.223,0.357,0.444,0.537,0.666v-4.592v-22.078V256v-58.252v-22.082v-4.59
			C29.821,171.297,29.641,171.518,29.463,171.742z"/>
	</g>
</g>
<g>
	<g>
		<path d="M497,160.666c-6.924,0-12.736,4.698-14.463,11.076c-0.178-0.224-0.358-0.444-0.537-0.666v4.59v22.081V256v58.254v22.078
			v4.592c0.18-0.222,0.359-0.443,0.537-0.666c1.727,6.377,7.539,11.074,14.463,11.074c8.284,0,15-6.716,15-15V256v-80.334
			C512,167.382,505.284,160.666,497,160.666z"/>
	</g>
</g>
<g>
</g>
<g>
</g>
<g>
</g>
<g>
</g>
<g>
</g>
<g>
</g>
<g>
</g>
<g>
</g>
<g>
</g>
<g>
</g>
<g>
</g>
<g>
</g>
<g>
</g>
<g>
</g>
<g>
</g>
</svg>
