<?xml version="1.0"?>
<svg xmlns="http://www.w3.org/2000/svg" id="Solid" viewBox="0 0 512 512" width="512" height="512"><path d="M144,432a56.064,56.064,0,0,1,56-56h64a72.081,72.081,0,0,0,72-72c0-.152,0-.3-.013-.457L323.213,80H476.119l-12.1,175.45c-.013.183-.019.366-.019.55v80.48c-18.99,2.3-35.639,12.85-48.51,30.87a112.97,112.97,0,0,0-13.221,24.76c-.747-.07-1.5-.11-2.269-.11h-2.667a24.151,24.151,0,0,0-14.4,4.8l-57.6,43.2H144Zm-16,0a71.887,71.887,0,0,1,26.909-56.074c-.966.039-1.933.074-2.909.074H88a56.064,56.064,0,0,0-56,56v8h96ZM306.273,64l-1.829-32H208.47L210.3,64ZM56,472a8,8,0,0,1,8,8H80a8,8,0,0,1,16,0h16a8,8,0,0,1,16,0V456H32v24H48A8,8,0,0,1,56,472ZM264,360a56.064,56.064,0,0,0,56-55.779L307.187,80H211.213l12.774,223.543c.009.153.013.305.013.457a71.887,71.887,0,0,1-26.909,56.074c.966-.039,1.933-.074,2.909-.074ZM477.222,64l2.207-32H320.47L322.3,64ZM408,448V416a8.009,8.009,0,0,0-8-8h-2.667a8.051,8.051,0,0,0-4.8,1.6L332.8,454.4A8,8,0,0,1,328,456H144v24h16a8,8,0,0,1,16,0h16a8,8,0,0,1,16,0h16a8,8,0,0,1,16,0h16a8,8,0,0,1,16,0h16a8,8,0,0,1,16,0h16a8,8,0,0,1,15.73-2.029L371,449.753A8,8,0,0,1,384,456v24h16a8,8,0,0,1,16,0h16a8,8,0,0,1,16,0h16V456H416A8,8,0,0,1,408,448Zm20.766-71.706a97.212,97.212,0,0,0-11.95,22.6A23.922,23.922,0,0,1,424,416v24h40V352.653C450.372,354.85,438.542,362.76,428.766,376.294Z"/></svg>
