<svg height="512pt" viewBox="0 0 512.00021 512" width="512pt" xmlns="http://www.w3.org/2000/svg"><path d="m0 429.714844h310.855469v-228.570313h-310.855469zm219.429688-182.859375h9.140624v-9.140625c0-5.050782 4.09375-9.144532 9.144532-9.144532 5.050781 0 9.140625 4.09375 9.140625 9.144532v9.140625h9.144531c5.050781 0 9.144531 4.09375 9.144531 9.144531s-4.09375 9.144531-9.144531 9.144531h-9.144531v9.140625c0 5.050782-4.089844 9.144532-9.140625 9.144532-5.050782 0-9.144532-4.09375-9.144532-9.144532v-9.140625h-9.140624c-5.050782 0-9.144532-4.09375-9.144532-9.144531s4.09375-9.144531 9.144532-9.144531zm-5.488282 60.117187c-5.824218-5.46875-14.410156-6.800781-21.621094-3.355468-6.0625 3.125-9.792968 9.457031-9.589843 16.273437 0 5.050781-4.09375 9.144531-9.144531 9.144531-5.050782 0-9.140626-4.09375-9.140626-9.144531-.171874-13.714844 7.4375-26.347656 19.644532-32.605469 14.265625-6.941406 31.351562-4.242187 42.78125 6.757813 6.878906 6.839843 10.738281 16.144531 10.714844 25.847656v54.964844c0 5.050781 4.09375 9.144531 9.144531 9.144531h9.140625c5.050781 0 9.144531 4.09375 9.144531 9.144531 0 5.046875-4.09375 9.140625-9.144531 9.140625h-9.140625c-8.089844-.023437-15.746094-3.640625-20.902344-9.875-11.984375 11.152344-29.925781 12.964844-43.902344 4.4375-13.976562-8.527344-20.570312-25.308594-16.136719-41.070312 4.433594-15.757813 18.808594-26.644532 35.179688-26.632813h18.285156v-9.253906c.023438-4.84375-1.886718-9.492187-5.3125-12.917969zm-160-16.359375c5.847656-12.867187 15.9375-23.339843 28.582032-29.65625 22.28125-10.425781 48.835937-2.957031 62.417968 17.554688 1.882813 2.792969 2.078125 6.394531.507813 9.371093-1.574219 2.980469-4.65625 4.855469-8.023438 4.878907-3.367187.023437-6.476562-1.804688-8.089843-4.761719-8.695313-12.53125-25.148438-16.984375-38.976563-10.550781-8.847656 4.515625-15.871094 11.941406-19.886719 21.027343-8.933594 19.601563-8.933594 42.113282 0 61.714844 4.027344 9.066406 11.046875 16.46875 19.886719 20.972656 13.828125 6.445313 30.285156 1.988282 38.976563-10.550781 2.628906-4.3125 8.257812-5.671875 12.570312-3.042969 4.3125 2.628907 5.675781 8.257813 3.042969 12.570313-13.628907 20.441406-40.121094 27.898437-62.417969 17.574219-12.648438-6.328125-22.742188-16.808594-28.589844-29.6875-11.265625-24.574219-11.265625-52.835938 0-77.414063zm0 0"/><path d="m0 182.855469h310.859375l-.003906-10.914063c.058593-25.011718-11.316407-48.675781-30.882813-64.257812l-8.894531-7.113282h-231.296875l-8.894531 7.113282c-19.566407 15.582031-30.9414065 39.246094-30.886719 64.257812zm47.726562-63.039063c4.511719-2.269531 10.015626-.453125 12.289063 4.058594 2.269531 4.515625.453125 10.015625-4.0625 12.289062-.445313.21875-19.382813 10.242188-19.382813 28.40625 0 5.050782-4.09375 9.144532-9.140624 9.144532-5.050782 0-9.144532-4.09375-9.144532-9.144532 0-29.6875 28.234375-44.148437 29.441406-44.753906zm0 0"/><path d="m0 18.285156v45.714844c0 10.097656 8.1875 18.285156 18.285156 18.285156h274.285156c10.101563 0 18.285157-8.1875 18.285157-18.285156v-45.714844c0-10.097656-8.183594-18.285156-18.285157-18.285156h-274.285156c-10.097656 0-18.285156 8.1875-18.285156 18.285156zm274.285156 9.144532c0-5.050782 4.09375-9.144532 9.144532-9.144532 5.046874 0 9.140624 4.09375 9.140624 9.144532v27.425781c0 5.050781-4.09375 9.144531-9.140624 9.144531-5.050782 0-9.144532-4.09375-9.144532-9.144531zm-36.570312 0c0-5.050782 4.09375-9.144532 9.140625-9.144532 5.050781 0 9.144531 4.09375 9.144531 9.144532v27.425781c0 5.050781-4.09375 9.144531-9.144531 9.144531-5.046875 0-9.140625-4.09375-9.140625-9.144531zm-36.570313 0c0-5.050782 4.09375-9.144532 9.140625-9.144532 5.050782 0 9.144532 4.09375 9.144532 9.144532v27.425781c0 5.050781-4.09375 9.144531-9.144532 9.144531-5.046875 0-9.140625-4.09375-9.140625-9.144531zm-36.574219 0c0-5.050782 4.09375-9.144532 9.144532-9.144532 5.050781 0 9.140625 4.09375 9.140625 9.144532v27.425781c0 5.050781-4.089844 9.144531-9.140625 9.144531-5.050782 0-9.144532-4.09375-9.144532-9.144531zm-36.570312 0c0-5.050782 4.09375-9.144532 9.144531-9.144532 5.046875 0 9.140625 4.09375 9.140625 9.144532v27.425781c0 5.050781-4.09375 9.144531-9.140625 9.144531-5.050781 0-9.144531-4.09375-9.144531-9.144531zm-36.570312 0c0-5.050782 4.09375-9.144532 9.140624-9.144532 5.050782 0 9.144532 4.09375 9.144532 9.144532v27.425781c0 5.050781-4.09375 9.144531-9.144532 9.144531-5.046874 0-9.140624-4.09375-9.140624-9.144531zm-36.574219 0c0-5.050782 4.09375-9.144532 9.144531-9.144532s9.144531 4.09375 9.144531 9.144532v27.425781c0 5.050781-4.09375 9.144531-9.144531 9.144531s-9.144531-4.09375-9.144531-9.144531zm-27.425781-9.144532c5.046874 0 9.140624 4.09375 9.140624 9.144532v27.425781c0 5.050781-4.09375 9.144531-9.140624 9.144531-5.050782 0-9.144532-4.09375-9.144532-9.144531v-27.425781c0-5.050782 4.09375-9.144532 9.144532-9.144532zm0 0"/><path d="m182.683594 365.714844c0 10.097656 8.1875 18.285156 18.285156 18.285156s18.285156-8.1875 18.285156-18.285156v-18.285156h-18.285156c-10.097656 0-18.285156 8.1875-18.285156 18.285156zm0 0"/><path d="m0 475.429688c0 20.195312 16.375 36.570312 36.570312 36.570312h237.714844c20.199219 0 36.570313-16.375 36.570313-36.570312v-27.429688h-310.855469zm82.285156-9.144532h91.429688c5.050781 0 9.140625 4.09375 9.140625 9.144532 0 5.046874-4.089844 9.140624-9.140625 9.140624h-91.429688c-5.046875 0-9.140625-4.09375-9.140625-9.140624 0-5.050782 4.09375-9.144532 9.140625-9.144532zm-54.855468 0h18.285156c5.050781 0 9.140625 4.09375 9.140625 9.144532 0 5.046874-4.089844 9.140624-9.140625 9.140624h-18.285156c-5.050782 0-9.144532-4.09375-9.144532-9.140624 0-5.050782 4.09375-9.144532 9.144532-9.144532zm0 0"/><path d="m512 484.570312c0-15.148437-12.28125-27.425781-27.429688-27.425781h-36.570312v54.855469h36.570312c15.148438 0 27.429688-12.28125 27.429688-27.429688zm0 0"/><path d="m399.671875 436.847656c-.644531.636719-1.253906 1.308594-1.828125 2.007813h54.574219l-26.433594-27.425781zm0 0"/><path d="m504.3125 374.070312c-5.027344-5.242187-11.941406-8.25-19.203125-8.355468-7.289063-.140625-14.335937 2.625-19.582031 7.6875l-26.324219 25.363281 28.710937 29.761719 9.34375 9.746094 26.367188-25.382813c10.875-10.546875 11.171875-27.90625.660156-38.820313zm0 0"/><path d="m429.714844 457.144531h-36.570313c-15.148437 0-27.429687 12.277344-27.429687 27.425781 0 15.148438 12.28125 27.429688 27.429687 27.429688h36.570313zm0 0"/></svg>