<svg height="640pt" viewBox="-20 -140 640.00025 640" width="640pt" xmlns="http://www.w3.org/2000/svg"><path d="m590.296875 152.296875-76.195313-97.894531c-.304687-.300782-.503906-.601563-.800781-.902344-7.445312-6.953125-17.125-11.03125-27.300781-11.5h-66c-5.523438 0-10 4.476562-10 10v160h-27.003906c-18.390625 24.703125-47.199219 39.476562-77.996094 40h-220c-30.558594-.507812-59.175781-15.066406-77.578125-39.46875-4.332031 1.113281-7.375 4.996094-7.421875 9.46875v70c0 5.523438 4.476562 10 10 10h50c0 27.613281 22.386719 50 50 50s50-22.386719 50-50h20c0 27.613281 22.386719 50 50 50s50-22.386719 50-50h170c0 27.613281 22.386719 50 50 50s50-22.386719 50-50h20c13.269531 1.464844 25.59375-7.058594 28.902344-20 .742187-3.28125 1.113281-6.636719 1.097656-10v-95.199219c.019531-9.105469-3.453125-17.875-9.703125-24.503906zm-480.296875 179.703125c-16.566406 0-30-13.433594-30-30s13.433594-30 30-30 30 13.433594 30 30-13.433594 30-30 30zm120 0c-16.566406 0-30-13.433594-30-30s13.433594-30 30-30 30 13.433594 30 30-13.433594 30-30 30zm270 0c-16.566406 0-30-13.433594-30-30s13.433594-30 30-30 30 13.433594 30 30-13.433594 30-30 30zm-10.070312-180c-2.636719.003906-5.160157-1.042969-7.023438-2.90625s-2.910156-4.386719-2.90625-7.023438v-80.070312h6c4.648438.460938 9.0625 2.265625 12.699219 5.199219l66.003906 84.800781zm0 0"/><path d="m120 32h30v30h-30zm0 0"/><path d="m120 132h30v30h-30zm0 0"/><path d="m120 82h30v30h-30zm0 0"/><path d="m2.996094 157.734375c.382812 1.679687.851562 3.304687 1.304687 5 .6875 2.484375 1.449219 5 2.300781 7.355469.6875 2 1.394532 3.933594 2.195313 5.839844.515625 1.222656 1.0625 2.410156 1.613281 3.601562 1 2.078125 2 4.121094 3.070313 6.113281.441406.824219.878906 1.667969 1.347656 2.472657 3.375 5.851562 7.339844 11.335937 11.832031 16.375l.449219.488281c2.242187 2.464843 4.617187 4.808593 7.109375 7.019531 13.890625 12.6875 31.972656 19.808594 50.78125 20h220c18.828125-.179688 36.929688-7.300781 50.828125-20 2.550781-2.25 4.972656-4.644531 7.253906-7.167969l.277344-.300781c2.308594-2.546875 4.472656-5.214844 6.488281-8 .101563-.121094.179688-.257812.273438-.390625 1.738281-2.429687 3.339844-5 4.878906-7.613281.417969-.714844.847656-1.4375 1.257812-2.167969 1.472657-2.660156 2.863282-5.398437 4.121094-8.214844.441406-1.003906.820313-2.003906 1.230469-3.003906.777344-1.910156 1.511719-3.839844 2.1875-5.8125.484375-1.410156 1.003906-2.824219 1.394531-4.277344 3.207032-10.722656 4.828125-21.859375 4.808594-33.050781 0-55.097656-38.101562-100-85-100 1.699219 0 3.300781.101562 5 .199219v-20.199219c5.523438 0 10-4.476562 10-10s-4.476562-10-10-10h-90c-5.523438 0-10 4.476562-10 10s4.476562 10 10 10v20h-50v180h-20v-30h-30v30h-20v-180h-15c-46.898438 0-85 44.902344-85 100 .0351562 6.710938.648438 13.398438 1.839844 20 .335937 1.890625.6875 3.828125 1.15625 5.734375zm0 0"/></svg>