<?xml version="1.0" encoding="iso-8859-1"?>
<!-- Generator: Adobe Illustrator 19.0.0, SVG Export Plug-In . SVG Version: 6.00 Build 0)  -->
<svg version="1.1" id="Capa_1" xmlns="http://www.w3.org/2000/svg" xmlns:xlink="http://www.w3.org/1999/xlink" x="0px" y="0px"
	 viewBox="0 0 512 512" style="enable-background:new 0 0 512 512;" xml:space="preserve">
<g>
	<g>
		<path d="M90.012,76.005c-24.813,0-44.998,20.184-44.998,44.998c0,24.813,20.185,44.998,44.998,44.998
			c24.813,0,44.998-20.185,44.998-44.998C135.01,96.19,114.825,76.005,90.012,76.005z"/>
	</g>
</g>
<g>
	<g>
		<path d="M317.004,0.008H195.008c-24.813,0-44.998,21.185-44.998,45.998v29.999c0,24.813,20.185,44.998,44.998,44.998h54.787
			l56.603,55.603c4.33,4.33,10.817,5.56,16.347,3.252c5.61-2.314,9.258-7.793,9.258-13.857V118.44
			c17.46-6.196,29.999-22.88,29.999-42.435V46.006C362.002,21.193,341.817,0.008,317.004,0.008z"/>
	</g>
</g>
<g>
	<g>
		<path d="M239.113,474.71L194.114,338.7c-3.34-13.373-15.307-22.704-29.105-22.704c-10.856,0-19.143,0-29.999,0
			c-8.284,0-14.999-6.716-14.999-14.999s6.716-14.999,14.999-14.999c15.963,0,29.294,0,44.998,0
			c16.568,0,29.999-13.431,29.999-29.999s-13.43-29.999-29.999-29.999H97.406l-10.558-28.402
			c-4.995-9.976-15.468-16.42-27.187-16.42c-13.402,0.132-25.487,9.639-28.754,22.543L0.908,338.715
			c-4.691,18.792,9.375,36.945,28.665,37.227L0.469,493.356c-2.021,8.027,2.871,16.171,10.913,18.178
			c7.977,2.018,16.164-2.823,18.178-10.913l12.158-48.631h126.125l13.059,37.279c4.446,17.722,21.97,25.526,36.386,21.811
			C233.318,507.08,243.122,490.808,239.113,474.71z M49.217,421.992l10.342-42.365c0.309-1.227,0.17-2.424,0.17-3.633
			c28.604,0,66.006,0,81.843,0l15.763,45.998H49.217z"/>
	</g>
</g>
<g>
	<g>
		<path d="M421.989,76.005c-24.813,0-44.998,20.185-44.998,44.998c0,24.813,20.185,44.998,44.998,44.998
			c24.813,0,44.998-20.185,44.998-44.998C466.987,96.19,446.802,76.005,421.989,76.005z"/>
	</g>
</g>
<g>
	<g>
		<path d="M482.427,375.942c19.289-0.282,33.355-18.434,28.664-37.228l-29.999-134.995c-3.267-12.904-15.351-22.411-28.754-22.543
			c-11.719,0-22.191,6.445-27.187,16.42l-10.558,28.402h-82.603c-16.568,0-29.999,13.431-29.999,29.999s13.43,29.999,29.999,29.999
			c15.703,0,29.035,0,44.998,0c8.284,0,14.999,6.716,14.999,14.999s-6.716,14.999-14.999,14.999c-10.856,0-19.145,0-29.999,0
			c-13.798,0-25.766,9.331-29.105,22.704l-44.998,136.01c-4.01,16.098,5.795,32.37,21.825,36.371
			c14.415,3.715,31.94-4.089,36.386-21.811l13.058-37.279h126.126l12.158,48.631c2.014,8.09,10.202,12.931,18.178,10.913
			c8.042-2.007,12.934-10.151,10.913-18.178L482.427,375.942z M354.665,421.992l15.763-46.098c15.836,0,53.238,0,81.843,0
			c0,1.208-0.139,2.406,0.17,3.633l10.342,42.465H354.665z"/>
	</g>
</g>
<g>
</g>
<g>
</g>
<g>
</g>
<g>
</g>
<g>
</g>
<g>
</g>
<g>
</g>
<g>
</g>
<g>
</g>
<g>
</g>
<g>
</g>
<g>
</g>
<g>
</g>
<g>
</g>
<g>
</g>
</svg>
