<svg height="512pt" viewBox="-121 0 512 512.00025" width="512pt" xmlns="http://www.w3.org/2000/svg"><path d="m103.183594 291.785156c18.417968 18.417969 42.863281 25.050782 61.027344 18.601563l-79.660157-79.671875c-7.363281 20.933594 2.75 45.167968 18.632813 61.070312zm0 0"/><path d="m270 45c0-3.984375-1.582031-7.792969-4.394531-10.605469l-30-30c-5.859375-5.859375-15.351563-5.859375-21.210938 0l-19.394531 19.394531-19.394531-19.394531c-5.859375-5.859375-15.351563-5.859375-21.210938 0l-19.394531 19.394531-19.394531-19.394531c-5.859375-5.859375-15.351563-5.859375-21.210938 0l-19.394531 19.394531-19.394531-19.394531c-5.859375-5.859375-15.351563-5.859375-21.210938 0l-30 30c-2.8125 2.8125-4.394531 6.621094-4.394531 10.605469v17.578125c0 10.089844 3.476562 19.574219 9.574219 27.421875h250.855469c6.09375-7.847656 9.570312-17.332031 9.570312-27.421875zm0 0"/><path d="m105.785156 209.527344 79.664063 79.679687c7.375-20.957031-2.773438-45.210937-18.632813-61.070312-15.921875-15.921875-39.964844-26.011719-61.03125-18.609375zm0 0"/><path d="m270 147.421875c0-10.089844-3.476562-19.574219-9.570312-27.421875h-250.855469c-6.097657 7.847656-9.574219 17.332031-9.574219 27.421875v217.15625c0 10.089844 3.476562 19.574219 9.574219 27.421875h250.855469c6.09375-7.847656 9.570312-17.332031 9.570312-27.421875zm-71.367188 176.179687c-31.234374 31.234376-84.054687 21.996094-116.660156-10.605468-33.15625-33.15625-41.730468-85.582032-10.605468-116.675782 31.324218-31.351562 83.78125-22.269531 116.660156 10.605469 33.296875 33.296875 41.605468 85.679688 10.605468 116.675781zm0 0"/><path d="m9.574219 422c-6.097657 7.847656-9.574219 17.332031-9.574219 27.421875v17.578125c0 3.984375 1.582031 7.792969 4.394531 10.605469l30 30c5.859375 5.859375 15.351563 5.859375 21.210938 0l19.394531-19.394531 19.394531 19.394531c5.859375 5.859375 15.351563 5.859375 21.210938 0l19.394531-19.394531 19.394531 19.394531c5.859375 5.859375 15.351563 5.859375 21.210938 0l19.394531-19.394531 19.394531 19.394531c2.929688 2.929687 6.769531 4.394531 10.605469 4.394531s7.675781-1.464844 10.605469-4.394531l30-30c2.8125-2.8125 4.394531-6.621094 4.394531-10.605469v-17.578125c0-10.089844-3.476562-19.574219-9.570312-27.421875zm0 0"/></svg>