<svg id="Layer_1" height="512" viewBox="0 0 64 64" width="512" xmlns="http://www.w3.org/2000/svg" data-name="Layer 1"><path d="m25 40h14v6h-14z"/><path d="m19 58a3 3 0 0 0 3 3h20a3 3 0 0 0 3-3v-5h-26z"/><path d="m38.363 13h-1.363v-4h-1v-3h1v-4h-10v4h1v3h-1v4h-.027a18.632 18.632 0 0 1 -6.335 13.021l-1.638 1.433v4.546a1 1 0 0 0 1 1h24a1 1 0 0 0 1-1v-4.778z"/><path d="m21 35v16h22v-16zm20 12a1 1 0 0 1 -1 1h-16a1 1 0 0 1 -1-1v-8a1 1 0 0 1 1-1h16a1 1 0 0 1 1 1z"/><path d="m21 22.786v-5.786a2 2 0 0 1 2-2h1.707a16.561 16.561 0 0 0 .293-3h-3a4 4 0 0 0 -4 4v9.671l1.321-1.155a16.806 16.806 0 0 0 1.679-1.73z"/></svg>