<svg id="Capa_1" enable-background="new 0 0 512 512" height="512" viewBox="0 0 512 512" width="512" xmlns="http://www.w3.org/2000/svg"><g><path d="m481.913 103.286h30.083v30h-30.083z"/><path d="m481.913 172.143h30.083v30h-30.083z"/><path d="m432.464 137.714h30.083v30h-30.083z"/><path d="m158.218 286.146v-75.293c0-23.013 14.851-42.611 35.467-49.748-3.234-6.247-9.746-10.534-17.253-10.534h-81.714c-10.713 0-19.429 8.716-19.429 19.429v37.643 244.071 60.286h45.286v-83.857h30v83.857h45.286v-175.402c-21.74-6.475-37.643-26.636-37.643-50.452z"/><path d="m135.575 0c-24.326 0-45.317 14.491-54.836 35.286h109.672c-9.519-20.795-30.51-35.286-54.836-35.286z"/><path d="m135.575 120.571c18.335 0 35.458-8.2 46.978-22.499 7.655-9.502 12.133-20.751 13.104-32.786h-120.144c2.552 30.909 28.506 55.285 60.062 55.285z"/><path d="m323.793 263.507h-90.289v-52.653c0-12.483-10.156-22.64-22.64-22.64-12.49 0-22.646 10.156-22.646 22.64v75.293c0 12.483 10.156 22.64 22.639 22.64h112.936c12.483 0 22.64-10.156 22.64-22.64s-10.157-22.64-22.64-22.64z"/><path d="m309.812 338.786v89.354c0 29.698-24.161 53.86-53.86 53.86h-30.091v30h30.091c46.241 0 83.86-37.619 83.86-83.86v-91.854c-5.054 1.618-10.434 2.5-16.019 2.5z"/><path d="m22.647 188.214c-12.505 0-22.643 10.138-22.643 22.643v210.857h45.286v-210.857c0-12.506-10.138-22.643-22.643-22.643z"/><path d="m378.669 137.714h-31.141l-23.949 95.793h.214c10.536 0 20.351 3.124 28.591 8.476l18.568-74.269h7.717v19.429h30v-68.856h-30z"/><path d="m3.337 451.714c6.487 22.099 21.851 40.429 41.953 50.868v-36.866c-3.992-4.093-7.337-8.813-9.874-14.002z"/></g></svg>