<svg id="bold" enable-background="new 0 0 24 24" height="512" viewBox="0 0 24 24" width="512" xmlns="http://www.w3.org/2000/svg"><path d="m8.25 21.25c-2.481 0-4.5-2.019-4.5-4.5 0-.48.071-.937.212-1.357.175-.524.742-.805 1.265-.631.524.175.807.742.631 1.265-.071.216-.108.459-.108.723 0 1.378 1.122 2.5 2.5 2.5 1.146 0 2.167-.807 2.426-1.917.125-.538.666-.874 1.201-.746.538.125.872.664.746 1.201-.476 2.038-2.274 3.462-4.373 3.462z"/><path d="m23.25 21.5c-.07 0-.14-.01-.208-.029l-22.5-6.5c-.321-.093-.542-.387-.542-.721v-4.5c0-.334.221-.628.542-.721l22.5-6.5c.227-.063.471-.021.659.121s.299.364.299.6v17.5c0 .236-.111.458-.299.6-.132.098-.29.15-.451.15z"/><path d="m23 22.25c-.552 0-1-.448-1-1v-18.5c0-.552.448-1 1-1s1 .448 1 1v18.5c0 .552-.448 1-1 1z"/><path d="m1 16.25c-.552 0-1-.448-1-1v-6.5c0-.552.448-1 1-1s1 .448 1 1v6.5c0 .552-.448 1-1 1z"/></svg>