<svg id="Capa_1" enable-background="new 0 0 506.409 506.409" height="512" viewBox="0 0 506.409 506.409" width="512" xmlns="http://www.w3.org/2000/svg"><g><path d="m483.082 182.737c34.112-44.528 30.813-108.709-9.908-149.429-40.719-40.72-104.902-44.02-149.43-9.908l-16.195-16.197c-5.52-5.52-14.35-5.88-20.3-.84-161.844 136.969-151.662 128.202-152.9 129.67l-127.91 151.14c-5.04 5.95-4.68 14.78.84 20.3 22.169 22.169 14.542 14.573 16.196 16.196-56.894 74.267-3.998 182.667 90.277 182.667 24.382 0 48.762-7.78 69.06-23.33l16.196 16.196c5.493 5.493 14.327 5.899 20.3.84 161.844-136.969 151.662-128.202 152.9-129.67l127.91-151.14c5.04-5.95 4.68-14.78-.84-20.3zm-31.12-128.217c28.996 28.997 32.193 74.146 9.637 106.733l-116.371-116.37c32.587-22.556 77.737-19.36 106.734 9.637zm-127.413 95.053c5.07-6.55 14.49-7.75 21.04-2.68 6.56 5.07 7.76 14.49 2.69 21.04-85.164 110.043-75.609 99.257-180.27 180.27-2.73 2.11-5.96 3.13-9.17 3.13-14.236 0-20.49-18.113-9.19-26.86 107.838-83.454 95.901-72.818 174.9-174.9zm-225.66 124.18c107.43-83.479 95.054-72.134 174.94-174.94 5.08-6.54 14.51-7.72 21.05-2.64 6.54 5.09 7.72 14.51 2.64 21.05-81.312 104.642-70.249 94.767-180.22 180.22-6.546 5.089-15.964 3.906-21.05-2.64-5.08-6.54-3.9-15.97 2.64-21.05zm-44.294 178.133c-28.996-28.997-32.193-74.146-9.637-106.733l116.37 116.371c-32.586 22.556-77.736 19.359-106.733-9.638zm344.434-233.233c-84.709 109.87-75.774 99.711-180.3 180.3-2.73 2.1-5.95 3.12-9.15 3.12-14.328 0-20.42-18.203-9.17-26.88 107.261-82.684 96.084-72.668 174.86-174.86 5.06-6.56 14.48-7.78 21.04-2.72s7.78 14.48 2.72 21.04z"/></g></svg>