<?xml version="1.0" encoding="iso-8859-1"?>
<!-- Generator: Adobe Illustrator 21.0.0, SVG Export Plug-In . SVG Version: 6.00 Build 0)  -->
<svg version="1.1" id="Capa_1" xmlns="http://www.w3.org/2000/svg" xmlns:xlink="http://www.w3.org/1999/xlink" x="0px" y="0px"
	 viewBox="0 0 512 512" style="enable-background:new 0 0 512 512;" xml:space="preserve">
<g transform="translate(-1)">
	<g>
		<g>
			<path d="M191.089,414.071c-1.143-3.218-2.304-6.4-3.438-9.664c-15.378-44.014-29.906-85.577-76.699-97.719
				c-14.829-3.78-30.377-3.717-45.175,0.183l4.663,12.8c4.617,12.684,11.104,24.607,19.246,35.374l56.896,75.227L191.089,414.071z"
				/>
			<path d="M115.541,288.997c56.247,14.583,73.847,64.914,89.371,109.385c1.106,3.163,2.249,6.29,3.365,9.435l93.047-33.829
				l-14.336-39.433c-0.42-1.146-0.607-2.365-0.549-3.584c0.081-0.815,0.275-1.615,0.576-2.377c0.058-0.362,0.144-0.72,0.256-1.07
				l59.2-126.949c4.711-10.109,2.7-22.075-5.056-30.089c-6.143-6.461-15.09-9.453-23.884-7.988s-16.287,7.198-20.002,15.302
				l-19.429,41.627c-3.011,6.745-9.889,10.916-17.262,10.469c-7.346-0.306-13.778-5.025-16.274-11.941L174.76,26.213
				c-1.719-4.681-5.304-8.439-9.898-10.376c-4.595-1.938-9.788-1.882-14.339,0.155c-8.67,4.507-12.537,14.834-8.96,23.927
				l35.749,98.249l10.057,27.575c0.427,1.148,0.613,2.371,0.549,3.593c-0.226,4.34-3.475,7.921-7.773,8.566
				c-4.298,0.645-8.456-1.824-9.946-5.906L111.875,11.813c-1.656-4.442-4.993-8.054-9.289-10.057
				c-4.304-2.038-9.246-2.258-13.714-0.613C79.57,4.542,74.774,14.827,78.147,24.137l58.304,160.183
				c0.826,2.281,0.712,4.796-0.316,6.992c-1.029,2.197-2.888,3.894-5.169,4.719c-0.997,0.371-2.053,0.56-3.118,0.558
				c-0.091,0-0.174,0-0.256,0c-0.293,0-0.558-0.091-0.85-0.128c-0.781-0.09-1.547-0.284-2.277-0.576
				c-0.315-0.132-0.62-0.284-0.914-0.457c-0.661-0.365-1.276-0.811-1.829-1.326c-0.238-0.229-0.485-0.421-0.704-0.667
				c-0.747-0.83-1.333-1.791-1.728-2.834L72.954,63.259c-3.449-9.229-13.693-13.953-22.952-10.582
				c-9.258,3.371-14.068,13.575-10.776,22.861l21.614,59.374l33.966,93.339c1.024,2.803,0.615,5.929-1.095,8.375
				s-4.506,3.903-7.49,3.904c-0.101,0-0.192,0-0.283,0c-0.247,0-0.466-0.082-0.713-0.11c-0.836-0.084-1.656-0.29-2.432-0.613
				c-0.293-0.122-0.58-0.26-0.859-0.411c-0.691-0.375-1.331-0.839-1.902-1.381c-0.234-0.198-0.456-0.409-0.667-0.631
				c-0.746-0.831-1.335-1.792-1.737-2.834L43.66,141.166c-1.721-4.674-5.304-8.426-9.894-10.362
				c-4.59-1.935-9.777-1.881-14.326,0.149c-8.678,4.504-12.554,14.835-8.978,23.936L59.514,289.6
				C77.815,284.502,97.134,284.294,115.541,288.997z"/>
			<path d="M280.981,170.057c0.818-1.58,1.734-3.107,2.743-4.571V53.851c0-10.099-8.187-18.286-18.286-18.286
				c-10.12-0.015-18.342,8.166-18.377,18.286v117.467l14.711,40.43L280.981,170.057z"/>
			<path d="M338.737,147.301V18.377C338.737,8.228,330.509,0,320.359,0s-18.377,8.228-18.377,18.377v130.478
				C313.45,143.111,326.826,142.546,338.737,147.301z"/>
			<path d="M402.828,447.817h-42.761c-2.669,7.71-8.655,13.818-16.311,16.64l-4.837,1.755h36.389
				c10.12-0.015,18.342,8.166,18.377,18.286v9.143c0,5.049-4.093,9.143-9.143,9.143c-5.049,0-9.143-4.093-9.143-9.143v-9.143H288.67
				L213.059,512h189.769c5.049,0,9.143-4.093,9.143-9.143V456.96C411.971,451.911,407.878,447.817,402.828,447.817z"/>
			<path d="M496.798,240.823v0.027c-10.779-10.661-28.14-10.633-38.885,0.064l-32.978,33.061
				c-5.229,5.257-13.114,6.836-19.963,3.998c-6.85-2.838-11.308-9.53-11.287-16.945V53.851c-0.011-5.081-2.136-9.928-5.865-13.38
				c-3.729-3.451-8.726-5.196-13.792-4.815c-9.904,1.229-17.26,9.772-17.006,19.749v105.335
				c11.09,13.323,13.448,31.869,6.043,47.543l-57.609,123.529l13.65,37.486c11.496-0.009,21.778,7.152,25.755,17.938l15.287,41.993
				c0,0.082,0,0.174,0.064,0.256h33.015v-44.937v-0.064c0.016-1.1,0.233-2.187,0.64-3.209c0.458-1.209,1.165-2.309,2.075-3.227
				v-0.055l100.992-98.222C507.559,268.94,507.498,251.579,496.798,240.823z"/>
			<path d="M342.63,442.527c1.029-2.199,1.141-4.716,0.312-6.998l-15.269-41.984c-1.316-3.616-4.755-6.021-8.603-6.016
				c-1.063-0.002-2.119,0.184-3.118,0.549l-169.728,61.751l-8.11,2.953L159.646,512l177.81-64.75
				C339.74,446.425,341.601,444.726,342.63,442.527z M317.726,445.083h-0.009c-2.281,0.826-4.796,0.712-6.993-0.316
				c-2.197-1.029-3.894-2.888-4.719-5.169l-3.09-8.485l-127.086,46.391c-3.087,1.192-6.576,0.623-9.125-1.487
				c-2.548-2.11-3.758-5.433-3.162-8.687c0.595-3.255,2.903-5.934,6.033-7.005l127.259-46.327c9.423-3.374,19.804,1.483,23.25,10.88
				l3.09,8.485C324.906,438.104,322.467,443.35,317.726,445.083z"/>
		</g>
	</g>
</g>
<g>
</g>
<g>
</g>
<g>
</g>
<g>
</g>
<g>
</g>
<g>
</g>
<g>
</g>
<g>
</g>
<g>
</g>
<g>
</g>
<g>
</g>
<g>
</g>
<g>
</g>
<g>
</g>
<g>
</g>
</svg>
