<?xml version="1.0" encoding="iso-8859-1"?>
<!-- Generator: Adobe Illustrator 16.0.0, SVG Export Plug-In . SVG Version: 6.00 Build 0)  -->
<!DOCTYPE svg PUBLIC "-//W3C//DTD SVG 1.1//EN" "http://www.w3.org/Graphics/SVG/1.1/DTD/svg11.dtd">
<svg version="1.1" id="Capa_1" xmlns="http://www.w3.org/2000/svg" xmlns:xlink="http://www.w3.org/1999/xlink" x="0px" y="0px"
	 width="464.939px" height="464.939px" viewBox="0 0 464.939 464.939" style="enable-background:new 0 0 464.939 464.939;"
	 xml:space="preserve">
<g>
	<g>
		<path d="M238.005,64.873l4.503,2.469c8.081,4.429,13.657,12.138,15.299,21.151l3.987,21.886c0.203,1.111,1.126,1.949,2.252,2.043
			c0.07,0.006,0.14,0.009,0.209,0.009c1.045,0,1.99-0.653,2.352-1.649l23.596-65.316c2.025-5.604,1.748-11.661-0.784-17.056
			c-2.531-5.394-7.012-9.479-12.615-11.503c-5.501-1.988-11.759-1.699-17.057,0.786c-5.394,2.531-9.478,7.012-11.5,12.613
			l-11.392,31.525C236.437,62.99,236.924,64.281,238.005,64.873z"/>
		<path d="M280.223,99.041c0.327,0.623,0.904,1.078,1.586,1.253l6.382,1.649c7.524,1.942,13.961,6.674,18.125,13.32l6.542,10.44
			c0.46,0.733,1.264,1.172,2.117,1.172c0.089,0,0.177-0.005,0.267-0.014c0.951-0.103,1.761-0.737,2.087-1.637l34.448-95.356
			c2.025-5.604,1.747-11.661-0.783-17.056c-2.529-5.393-7.011-9.479-12.616-11.505c-5.501-1.988-11.765-1.698-17.055,0.786
			c-5.396,2.532-9.48,7.012-11.503,12.614l-29.736,82.314C279.843,97.687,279.895,98.419,280.223,99.041z"/>
		<path d="M301.923,138.293c0-12.3-10.007-22.307-22.307-22.307c-12.301,0-22.308,10.007-22.308,22.307v86.402h-8V100.94
			c0-12.3-10.006-22.306-22.307-22.306c-12.299,0-22.306,10.006-22.306,22.306v123.754h-8V65.353
			c0-12.3-10.007-22.307-22.308-22.307c-12.3,0-22.306,10.007-22.306,22.307v159.342h-8V100.94c0-12.3-10.007-22.306-22.308-22.306
			c-12.3,0-22.307,10.006-22.307,22.306v141.236l-25.608-29.57c-4.58-5.288-10.199-8.708-15.82-9.628
			c-1.038-0.17-2.083-0.256-3.108-0.256c-4.697,0-9.084,1.737-13.036,5.163c-11.091,9.604-12.704,21.972-4.902,37.867l62.562,119.61
			l-8.268,96.864c-0.06,0.697,0.177,1.388,0.648,1.903c0.475,0.516,1.143,0.809,1.843,0.809h214.247
			c0.701,0,1.371-0.295,1.845-0.812c0.475-0.519,0.709-1.21,0.646-1.909l-8.594-96.44V138.293H301.923z"/>
		<path d="M418.059,105.661c-5.501-1.986-11.762-1.698-17.056,0.787c-5.389,2.529-9.472,7.006-11.496,12.604l-29.36,81.272
			l-7.523-2.72l42.049-116.392c4.177-11.567-1.835-24.378-13.402-28.557c-2.438-0.881-4.981-1.328-7.562-1.328
			c-9.358,0-17.793,5.911-20.99,14.711l-36.144,100.049c-0.099,0.272-0.148,0.56-0.148,0.85v191.104c0,0.074,0.003,0.147,0.01,0.221
			l7.063,79.525c0.105,1.199,1.054,2.152,2.253,2.268c0.08,0.007,0.16,0.011,0.238,0.011c1.104,0,2.093-0.73,2.401-1.812
			l25.798-90.128l77.275-213.908C435.641,122.654,429.629,109.842,418.059,105.661z"/>
	</g>
</g>
<g>
</g>
<g>
</g>
<g>
</g>
<g>
</g>
<g>
</g>
<g>
</g>
<g>
</g>
<g>
</g>
<g>
</g>
<g>
</g>
<g>
</g>
<g>
</g>
<g>
</g>
<g>
</g>
<g>
</g>
</svg>
