<?xml version="1.0" encoding="UTF-8"?>
<svg xmlns="http://www.w3.org/2000/svg" viewBox="0 0 64 64" width="512" height="512"><g id="Artboard_26" data-name="Artboard 26"><path d="M26,24h4a1,1,0,0,0,1-1V22H25v1A1,1,0,0,0,26,24Z"/><path d="M17,39.976a1.82,1.82,0,0,0,.369,1.074,9.933,9.933,0,0,1,2.184.372l2.139.642,2.714-2.22A3.737,3.737,0,0,1,26.77,39h.292a3.749,3.749,0,0,1,2.892,1.382l.658-.538A3.737,3.737,0,0,1,32.976,39h.292a3.743,3.743,0,0,1,2.8,1.286l.54-.442A3.737,3.737,0,0,1,38.976,39H39V36.828a1.829,1.829,0,0,0-3.122-1.293l-1.55,1.551A3.121,3.121,0,0,1,29,34.879V26H27v8.879a3.121,3.121,0,0,1-5.328,2.207l-1.55-1.551A1.829,1.829,0,0,0,17,36.828Z"/><path d="M59,41H42.553A3.679,3.679,0,0,1,43,42.732,3.724,3.724,0,0,1,42.757,44H61V43A2,2,0,0,0,59,41Z"/><path d="M44,16H26a3,3,0,0,0-3,3v1H44Z"/><path d="M46,6v5h2v5H46V39h9V16H53V11h2V3H27V5H45A1,1,0,0,1,46,6Z"/><path d="M34.517,41.557A1.728,1.728,0,0,0,33.268,41h-.292a1.731,1.731,0,0,0-1.1.392l-3.758,3.074a3.266,3.266,0,0,1,.827,1.648Z"/><path d="M39.268,41h-.292a1.731,1.731,0,0,0-1.1.392L27.633,49.774A1,1,0,0,1,27,50H19V48h6.707a1.293,1.293,0,0,0,.371-2.532l-7.1-2.13a7.962,7.962,0,0,0-2.3-.338h-.246A8.01,8.01,0,0,0,12.4,44.09L3,49.574V60.179l9.463-6.023A1.012,1.012,0,0,1,13,54H28.634l11.753-9.945A1.733,1.733,0,0,0,39.268,41Z"/><path d="M26.77,41a1.731,1.731,0,0,0-1.1.392L24,42.757l2.229.669L28.4,41.65A1.732,1.732,0,0,0,27.062,41Z"/><circle cx="15" cy="26" r="2"/><circle cx="10" cy="34" r="2"/></g></svg>
