<svg id="Capa_1" enable-background="new 0 0 512 512" height="512" viewBox="0 0 512 512" width="512" xmlns="http://www.w3.org/2000/svg"><g><path d="m436.087 180.048v-40.408c0-14.728-8.967-27.972-22.641-33.441l-9.452-3.781v-39.418h-30v27.418l-19.752-7.901h-196.484l-21.917 8.767v-28.284h-30v40.284l-7.287 2.915c-13.674 5.47-22.641 18.714-22.641 33.441v40.408z"/><path d="m328.035 52.518v-20.018c0-17.949-14.551-32.5-32.5-32.5h-79.069c-17.949 0-32.5 14.551-32.5 32.5v20.018z"/><path d="m75.913 282.082h360.173v42.035h-360.173z"/><path d="m75.913 354.117h360.173v83.216h-360.173z"/><path d="m375.254 467.333 24.815 44.667h36.018v-44.667z"/><path d="m195.168 467.333 24.815 44.667h72.034l24.815-44.667z"/><path d="m75.913 210.048h360.173v42.034h-360.173z"/><path d="m75.913 467.333v44.667h36.018l24.815-44.667z"/></g></svg>